<?xml version="1.0" standalone="no"?>
<!DOCTYPE svg PUBLIC "-//W3C//DTD SVG 20010904//EN"
 "http://www.w3.org/TR/2001/REC-SVG-20010904/DTD/svg10.dtd">
<svg version="1.0" xmlns="http://www.w3.org/2000/svg"
 width="700.000000pt" height="700.000000pt" viewBox="0 0 700.000000 700.000000"
 preserveAspectRatio="xMidYMid meet">
<metadata>
Created by potrace 1.14, written by Peter Selinger 2001-2017
</metadata>
<g transform="translate(0.000000,700.000000) scale(0.100000,-0.100000)"
fill="#000000" stroke="none">
<path d="M3298 6885 c-1 -2 -39 -6 -83 -10 -195 -15 -355 -42 -550 -92 -148
-38 -370 -111 -438 -143 -23 -11 -45 -20 -49 -20 -11 0 -316 -151 -378 -187
-40 -23 -227 -145 -290 -190 -35 -25 -208 -162 -249 -198 -63 -55 -266 -259
-311 -314 -25 -29 -50 -59 -55 -65 -109 -117 -303 -411 -417 -631 -161 -310
-296 -745 -334 -1075 -3 -30 -8 -57 -10 -60 -9 -16 -18 -219 -19 -400 0 -179
5 -280 20 -395 2 -17 6 -53 9 -80 3 -28 13 -84 21 -125 8 -41 16 -86 19 -100
2 -14 16 -72 31 -130 109 -427 297 -826 553 -1175 37 -49 69 -92 72 -95 3 -3
15 -17 26 -32 151 -196 465 -490 684 -639 36 -24 67 -46 70 -49 8 -9 141 -90
147 -90 2 0 17 -8 31 -19 98 -68 389 -201 597 -273 125 -44 362 -108 455 -124
25 -4 47 -8 50 -9 49 -12 174 -28 315 -42 149 -15 618 -6 685 12 8 2 40 6 70
10 60 6 59 5 210 36 200 40 490 130 650 201 193 86 370 181 528 284 83 54 249
176 287 211 11 10 47 41 80 68 60 50 248 235 316 310 127 143 311 402 413 585
148 264 285 613 341 870 20 92 36 166 40 192 3 18 7 44 10 58 3 14 7 48 11 75
3 28 8 59 10 70 26 133 25 585 -1 795 -3 19 -7 58 -10 85 -4 28 -8 57 -11 66
-3 10 -6 30 -9 45 -16 120 -78 352 -139 526 -53 149 -64 178 -141 343 -78 170
-250 450 -362 592 -26 33 -61 78 -78 99 -100 127 -327 352 -490 483 -105 84
-372 271 -388 271 -3 0 -34 18 -70 40 -53 32 -218 114 -342 170 -147 67 -525
182 -665 204 -19 3 -57 10 -85 15 -63 13 -104 19 -186 26 -35 4 -75 9 -89 12
-28 6 -496 14 -502 8z m391 -859 c62 -4 116 -8 120 -10 3 -2 29 -6 56 -10 28
-3 61 -8 75 -11 14 -2 50 -10 80 -16 96 -19 292 -77 398 -119 706 -275 1263
-866 1491 -1581 50 -158 73 -252 86 -354 4 -28 9 -53 11 -56 18 -30 27 -506
11 -644 -20 -183 -54 -337 -117 -525 -55 -165 -62 -183 -128 -317 -219 -443
-564 -817 -982 -1063 -224 -133 -534 -253 -770 -299 -90 -18 -102 -20 -145
-26 -22 -4 -51 -8 -65 -10 -106 -15 -497 -24 -518 -11 -4 2 -43 7 -86 11 -43
4 -86 8 -95 10 -9 2 -63 13 -121 24 -572 113 -1104 442 -1482 917 -245 308
-455 783 -503 1134 -3 25 -8 52 -10 60 -2 8 -7 47 -11 85 -3 39 -8 79 -10 90
-6 26 -5 313 0 385 29 386 159 792 356 1115 44 73 149 226 160 235 3 3 13 15
21 27 88 129 335 364 524 499 63 45 92 64 198 128 60 36 242 124 322 156 145
58 370 124 495 144 84 14 202 27 290 33 52 3 96 6 97 7 3 3 105 -1 252 -8z"/>
<path d="M3210 5460 c-70 -22 -270 -118 -380 -182 -417 -242 -675 -482 -844
-783 -174 -310 -240 -572 -240 -945 -1 -204 7 -283 53 -542 32 -185 44 -216
107 -294 98 -121 281 -169 429 -112 136 52 242 196 247 335 1 46 -10 161 -17
173 -2 3 -6 24 -9 46 -4 22 -9 51 -12 64 -2 14 -7 45 -10 70 -4 25 -9 63 -13
86 -12 66 -4 332 13 421 31 169 138 380 253 498 145 150 388 309 679 443 217
100 302 327 199 532 -24 47 -102 140 -118 140 -5 0 -21 8 -35 19 -68 48 -205
62 -302 31z"/>
</g>
</svg>
